<svg xmlns="http://www.w3.org/2000/svg" version="1.1" viewBox="0 0 48 24">
  <path d="m 19.2138,14.6753 c -0.699,0 -1.41,-0.015 -1.442,-0.957 l -2.662,0 c 0.02,1.856 0.9,2.463 2.527,2.593 0.492,0.038 1.027,0.035 1.577,0.035 2.243,0 4.104,-0.375 4.104,-2.806 0,-2.317 -1.209,-2.482 -4.105,-2.548 -1.438,-0.032 -1.523,-0.333 -1.523,-0.809 0,-0.565 0.063,-0.746 1.524,-0.746 0.536,0 1.069,0.048 1.19,0.714 l 2.508,0 0,-0.342 c 0,-2.016 -2.113,-2.044 -3.698,-2.044 -2.38,0 -4.104,0.054 -4.104,2.725 0,1.681 0.58,2.466 4.104,2.466 0.318,0 0.824,-0.017 1.121,0.112 0.275,0.119 0.403,0.36 0.403,0.797 0,0.731 -0.268,0.81 -1.524,0.81 M 31.1752,9.4956 c -1.172,0 -1.391,0.38 -1.424,1.528 l 2.925,0 0,-0.091 c 0,-1.336 -0.536,-1.437 -1.501,-1.437 m 12.3228,0.1694 -1.944,0 0,6.581 -2.66,0 0,-6.581 -1.946,0 0,-1.917 6.55,0 z m -8.213,2.706 -5.531,0 0,0.091 c 0,1.51 0.238,2.025 1.469,2.025 0.829,0 1.461,-0.092 1.501,-0.991 l 2.56,0 c -0.02,1.2 -0.428,1.872 -1.105,2.265 -0.706,0.393 -1.723,0.491 -2.956,0.491 -3.298,0 -4.077,-1.118 -4.077,-4.261 0,-3.24 0.714,-4.278 4.077,-4.278 3.143,0 4.062,0.851 4.062,4.278 z m -10.297,7.046 -17.925,0 C 5.674,19.415 4.051,18.735 3.206,17.827 1.872,16.392 1.581,14.142 1.581,12 1.581,9.859 1.872,7.608 3.206,6.173 4.051,5.265 5.674,4.585 7.063,4.582 l 17.925,0 z M 41.38,3 6.621,3 C 4.236,3 2.204,4.232 1.144,5.977 0.207,7.602 0,10.248 0,12 0,13.754 0.207,16.4 1.144,18.023 2.204,19.769 4.236,21 6.621,21 l 34.759,0 c 2.384,0 4.417,-1.231 5.477,-2.977 C 47.793,16.4 48,13.753 48,11.999 48,10.248 47.793,7.602 46.857,5.977 45.797,4.232 43.764,3 41.38,3 M 9.2113,9.5835 c 0.958,0 1.475,0.094 1.475,1.41 l 0,0.064 -2.871,0 c 0.032,-1.125 0.261,-1.474 1.396,-1.474 m -4.056,2.48 c 0,3.151 0.788,4.283 4.105,4.283 1.233,0 2.254,-0.097 2.969,-0.494 0.692,-0.401 1.104,-1.088 1.118,-2.314 l -2.614,0 c -0.027,0.898 -0.636,0.99 -1.473,0.99 -1.209,0 -1.445,-0.491 -1.445,-1.994 l 0,-0.064 5.532,0 0,-0.407 c 0,-3.437 -0.93,-4.298 -4.087,-4.298 -3.381,0 -4.105,1.051 -4.105,4.298"/>
</svg>